G04 Layer: TopLayer*
G04 EasyEDA v6.4.25, 2021-11-23T19:48:26+05:30*
G04 6deea0fc31d746a092a9f6c351e50df0,9f4002972f33485ea6085689b454d61d,10*
G04 Gerber Generator version 0.2*
G04 Scale: 100 percent, Rotated: No, Reflected: No *
G04 Dimensions in millimeters *
G04 leading zeros omitted , absolute positions ,4 integer and 5 decimal *
%FSLAX45Y45*%
%MOMM*%

%ADD10C,0.2540*%
%ADD11C,0.6096*%
%ADD13C,1.7780*%
%ADD14C,1.2700*%
%ADD15C,1.8000*%
%ADD16C,1.6000*%
%ADD17R,1.6000X1.6000*%
%ADD18C,1.4000*%

%LPD*%
D10*
X3962400Y4216400D02*
G01*
X3987800Y4241800D01*
X4801463Y4241800D01*
X3962400Y3060700D02*
G01*
X4076700Y3060700D01*
X4584700Y3568700D01*
X4814168Y3568700D01*
X3848100Y2362200D02*
G01*
X4267200Y2362200D01*
X4419600Y2514600D01*
X4419600Y2946400D01*
X4699000Y3225800D01*
X4864963Y3225800D01*
X2222502Y2146300D02*
G01*
X2527300Y1841500D01*
X4559300Y1841500D01*
X5232400Y2514600D01*
X5613400Y2514600D01*
X2882900Y3294379D02*
G01*
X2882900Y2451100D01*
X3276600Y2057400D01*
X4381500Y2057400D01*
X5092700Y2768600D01*
X5613400Y2768600D01*
X5015636Y3225800D02*
G01*
X5066436Y3276600D01*
X5613400Y3276600D01*
X4964836Y3568700D02*
G01*
X5002936Y3530600D01*
X5613400Y3530600D01*
X4952136Y3898900D02*
G01*
X5066436Y3784600D01*
X5613400Y3784600D01*
X4952136Y4241800D02*
G01*
X5002936Y4191000D01*
X5613400Y4191000D01*
X787400Y3276600D02*
G01*
X1612900Y3276600D01*
X1663700Y3225800D01*
X1922503Y2146300D02*
G01*
X1922503Y3220996D01*
X1409700Y3733800D01*
X3962400Y3619500D02*
G01*
X4305300Y3619500D01*
X4584700Y3898900D01*
X4801463Y3898900D01*
X1917700Y3733800D02*
G01*
X2672079Y3733800D01*
X2882900Y3944620D01*
X2882900Y3944620D02*
G01*
X3436620Y3944620D01*
X3708400Y4216400D01*
X3708400Y4216400D02*
G01*
X4000500Y4508500D01*
X4813300Y4508500D01*
X4964836Y4660036D01*
X4964836Y4686300D01*
X3848100Y2616200D02*
G01*
X3848100Y2921000D01*
X3708400Y3060700D01*
X2522499Y2146300D02*
G01*
X2522499Y2547899D01*
X2654300Y2679700D01*
X3149600Y2679700D02*
G01*
X3327400Y2679700D01*
X3708400Y3060700D01*
X3708400Y3060700D02*
G01*
X3708400Y3619500D01*
X3708400Y3619500D02*
G01*
X3708400Y4216400D01*
X4076903Y4753406D02*
G01*
X3466896Y4753406D01*
X3010103Y5337606D02*
G01*
X2400096Y5337606D01*
X2400096Y5337606D02*
G01*
X1634489Y4572000D01*
X787400Y4572000D01*
X1409700Y3733800D02*
G01*
X1409700Y4572000D01*
X787400Y4064000D02*
G01*
X787400Y4318000D01*
X3010103Y5787593D02*
G01*
X4813300Y5787593D01*
X5139893Y5461000D01*
X5613400Y5461000D01*
X4076903Y5203393D02*
G01*
X4435906Y5203393D01*
X4559300Y5080000D01*
X5194300Y4991100D02*
G01*
X5194300Y4838700D01*
X5334000Y4699000D01*
X5613400Y4699000D01*
X4952136Y5308600D02*
G01*
X4964836Y5295900D01*
X4964836Y4686300D01*
X4814163Y4686300D02*
G01*
X4343400Y4686300D01*
X3822700Y5207000D01*
X3470503Y5207000D01*
X3466896Y5203393D01*
X3466896Y4753406D02*
G01*
X3466896Y4753406D01*
X3010103Y5337606D01*
X2400051Y5788660D02*
G01*
X2895600Y5600700D01*
X2895600Y5600700D01*
X4509363Y5600700D01*
X4801463Y5308600D01*
G36*
X4841798Y4285000D02*
G01*
X4841798Y4198599D01*
X4761151Y4198599D01*
X4761151Y4285000D01*
G37*
G36*
X4911801Y4285000D02*
G01*
X4911801Y4198599D01*
X4992448Y4198599D01*
X4992448Y4285000D01*
G37*
G36*
X4841798Y3942100D02*
G01*
X4841798Y3855699D01*
X4761151Y3855699D01*
X4761151Y3942100D01*
G37*
G36*
X4911801Y3942100D02*
G01*
X4911801Y3855699D01*
X4992448Y3855699D01*
X4992448Y3942100D01*
G37*
G36*
X4854498Y3611900D02*
G01*
X4854498Y3525499D01*
X4773851Y3525499D01*
X4773851Y3611900D01*
G37*
G36*
X4924501Y3611900D02*
G01*
X4924501Y3525499D01*
X5005148Y3525499D01*
X5005148Y3611900D01*
G37*
G36*
X4905298Y3269000D02*
G01*
X4905298Y3182599D01*
X4824651Y3182599D01*
X4824651Y3269000D01*
G37*
G36*
X4975301Y3269000D02*
G01*
X4975301Y3182599D01*
X5055948Y3182599D01*
X5055948Y3269000D01*
G37*
G36*
X4924501Y4643099D02*
G01*
X4924501Y4729500D01*
X5005148Y4729500D01*
X5005148Y4643099D01*
G37*
G36*
X4854498Y4643099D02*
G01*
X4854498Y4729500D01*
X4773851Y4729500D01*
X4773851Y4643099D01*
G37*
G36*
X4911801Y5265399D02*
G01*
X4911801Y5351800D01*
X4992448Y5351800D01*
X4992448Y5265399D01*
G37*
G36*
X4841798Y5265399D02*
G01*
X4841798Y5351800D01*
X4761151Y5351800D01*
X4761151Y5265399D01*
G37*
D13*
G01*
X2882900Y3294379D03*
G01*
X2882900Y3944620D03*
D14*
G01*
X1409700Y3733800D03*
G01*
X1917700Y3733800D03*
G01*
X1663700Y3225800D03*
D15*
G01*
X3010103Y5337606D03*
G01*
X2400096Y5337606D03*
G01*
X3010103Y5787593D03*
G01*
X2400096Y5787593D03*
G01*
X4076903Y4753406D03*
G01*
X3466896Y4753406D03*
G01*
X4076903Y5203393D03*
G01*
X3466896Y5203393D03*
D16*
G01*
X2522499Y2146300D03*
G01*
X2222500Y2146300D03*
G01*
X1922500Y2146300D03*
D17*
G01*
X3962400Y4216400D03*
D16*
G01*
X3708400Y4216400D03*
D17*
G01*
X3962400Y3619500D03*
D16*
G01*
X3708400Y3619500D03*
D17*
G01*
X3962400Y3060700D03*
D16*
G01*
X3708400Y3060700D03*
D17*
G01*
X3848100Y2362200D03*
D16*
G01*
X3848100Y2616200D03*
D11*
G01*
X3149600Y2679700D03*
G01*
X2654300Y2679700D03*
G01*
X4559300Y5080000D03*
G01*
X5194300Y4991100D03*
D13*
X876300Y5080000D02*
G01*
X698500Y5080000D01*
X876300Y4826000D02*
G01*
X698500Y4826000D01*
X876300Y4572000D02*
G01*
X698500Y4572000D01*
X876300Y4318000D02*
G01*
X698500Y4318000D01*
X876300Y4064000D02*
G01*
X698500Y4064000D01*
X876300Y3784600D02*
G01*
X698500Y3784600D01*
X876300Y3276600D02*
G01*
X698500Y3276600D01*
X876300Y3022600D02*
G01*
X698500Y3022600D01*
X876300Y2768600D02*
G01*
X698500Y2768600D01*
X876300Y2514600D02*
G01*
X698500Y2514600D01*
X876300Y2260600D02*
G01*
X698500Y2260600D01*
X876300Y2006600D02*
G01*
X698500Y2006600D01*
X5702300Y2006600D02*
G01*
X5524500Y2006600D01*
X5702300Y2260600D02*
G01*
X5524500Y2260600D01*
X5702300Y2514600D02*
G01*
X5524500Y2514600D01*
X5702300Y2768600D02*
G01*
X5524500Y2768600D01*
X5702300Y3022600D02*
G01*
X5524500Y3022600D01*
X5702300Y3276600D02*
G01*
X5524500Y3276600D01*
X5702300Y3530600D02*
G01*
X5524500Y3530600D01*
X5702300Y3784600D02*
G01*
X5524500Y3784600D01*
X5702300Y4191000D02*
G01*
X5524500Y4191000D01*
X5702300Y4445000D02*
G01*
X5524500Y4445000D01*
X5702300Y4699000D02*
G01*
X5524500Y4699000D01*
X5702300Y4953000D02*
G01*
X5524500Y4953000D01*
X5702300Y5207000D02*
G01*
X5524500Y5207000D01*
X5702300Y5461000D02*
G01*
X5524500Y5461000D01*
X5702300Y5715000D02*
G01*
X5524500Y5715000D01*
X5702300Y5969000D02*
G01*
X5524500Y5969000D01*
X5702300Y6223000D02*
G01*
X5524500Y6223000D01*
X5702300Y6477000D02*
G01*
X5524500Y6477000D01*
X876300Y5334000D02*
G01*
X698500Y5334000D01*
X876300Y5588000D02*
G01*
X698500Y5588000D01*
D18*
X1642490Y2106300D02*
G01*
X1642490Y2186299D01*
X2802483Y2106300D02*
G01*
X2802483Y2186299D01*
M02*
