G04 Layer: TopSolderMaskLayer*
G04 EasyEDA v6.4.25, 2021-11-23T19:48:26+05:30*
G04 6deea0fc31d746a092a9f6c351e50df0,9f4002972f33485ea6085689b454d61d,10*
G04 Gerber Generator version 0.2*
G04 Scale: 100 percent, Rotated: No, Reflected: No *
G04 Dimensions in millimeters *
G04 leading zeros omitted , absolute positions ,4 integer and 5 decimal *
%FSLAX45Y45*%
%MOMM*%

%ADD20C,1.9812*%
%ADD21C,1.5000*%
%ADD22C,1.8796*%
%ADD23C,1.4732*%
%ADD25C,1.9016*%
%ADD26C,1.7000*%
%ADD27R,1.7016X1.7016*%
%ADD28C,1.7016*%

%LPD*%
D20*
X876300Y5080000D02*
G01*
X698500Y5080000D01*
X876300Y4826000D02*
G01*
X698500Y4826000D01*
X876300Y4572000D02*
G01*
X698500Y4572000D01*
X876300Y4318000D02*
G01*
X698500Y4318000D01*
X876300Y4064000D02*
G01*
X698500Y4064000D01*
X876300Y3784600D02*
G01*
X698500Y3784600D01*
X876300Y3276600D02*
G01*
X698500Y3276600D01*
X876300Y3022600D02*
G01*
X698500Y3022600D01*
X876300Y2768600D02*
G01*
X698500Y2768600D01*
X876300Y2514600D02*
G01*
X698500Y2514600D01*
X876300Y2260600D02*
G01*
X698500Y2260600D01*
X876300Y2006600D02*
G01*
X698500Y2006600D01*
X5702300Y2006600D02*
G01*
X5524500Y2006600D01*
X5702300Y2260600D02*
G01*
X5524500Y2260600D01*
X5702300Y2514600D02*
G01*
X5524500Y2514600D01*
X5702300Y2768600D02*
G01*
X5524500Y2768600D01*
X5702300Y3022600D02*
G01*
X5524500Y3022600D01*
X5702300Y3276600D02*
G01*
X5524500Y3276600D01*
X5702300Y3530600D02*
G01*
X5524500Y3530600D01*
X5702300Y3784600D02*
G01*
X5524500Y3784600D01*
X5702300Y4191000D02*
G01*
X5524500Y4191000D01*
X5702300Y4445000D02*
G01*
X5524500Y4445000D01*
X5702300Y4699000D02*
G01*
X5524500Y4699000D01*
X5702300Y4953000D02*
G01*
X5524500Y4953000D01*
X5702300Y5207000D02*
G01*
X5524500Y5207000D01*
X5702300Y5461000D02*
G01*
X5524500Y5461000D01*
X5702300Y5715000D02*
G01*
X5524500Y5715000D01*
X5702300Y5969000D02*
G01*
X5524500Y5969000D01*
X5702300Y6223000D02*
G01*
X5524500Y6223000D01*
X5702300Y6477000D02*
G01*
X5524500Y6477000D01*
X876300Y5334000D02*
G01*
X698500Y5334000D01*
X876300Y5588000D02*
G01*
X698500Y5588000D01*
D21*
X1642490Y2106300D02*
G01*
X1642490Y2186299D01*
X2802483Y2106300D02*
G01*
X2802483Y2186299D01*
D22*
G01*
X2882900Y3294379D03*
G01*
X2882900Y3944620D03*
D23*
G01*
X1409700Y3733800D03*
G01*
X1917700Y3733800D03*
G01*
X1663700Y3225800D03*
G36*
X4756150Y4193539D02*
G01*
X4756150Y4290060D01*
X4846827Y4290060D01*
X4846827Y4193539D01*
G37*
G36*
X4906772Y4193539D02*
G01*
X4906772Y4290060D01*
X4997450Y4290060D01*
X4997450Y4193539D01*
G37*
G36*
X4756150Y3850639D02*
G01*
X4756150Y3947160D01*
X4846827Y3947160D01*
X4846827Y3850639D01*
G37*
G36*
X4906772Y3850639D02*
G01*
X4906772Y3947160D01*
X4997450Y3947160D01*
X4997450Y3850639D01*
G37*
G36*
X4768850Y3520439D02*
G01*
X4768850Y3616960D01*
X4859527Y3616960D01*
X4859527Y3520439D01*
G37*
G36*
X4919472Y3520439D02*
G01*
X4919472Y3616960D01*
X5010150Y3616960D01*
X5010150Y3520439D01*
G37*
G36*
X4819650Y3177539D02*
G01*
X4819650Y3274060D01*
X4910327Y3274060D01*
X4910327Y3177539D01*
G37*
G36*
X4970272Y3177539D02*
G01*
X4970272Y3274060D01*
X5060950Y3274060D01*
X5060950Y3177539D01*
G37*
G36*
X4919472Y4638039D02*
G01*
X4919472Y4734560D01*
X5010150Y4734560D01*
X5010150Y4638039D01*
G37*
G36*
X4768850Y4638039D02*
G01*
X4768850Y4734560D01*
X4859527Y4734560D01*
X4859527Y4638039D01*
G37*
D25*
G01*
X3010103Y5337606D03*
G01*
X2400096Y5337606D03*
G01*
X3010103Y5787593D03*
G01*
X2400096Y5787593D03*
G01*
X4076903Y4753406D03*
G01*
X3466896Y4753406D03*
G01*
X4076903Y5203393D03*
G01*
X3466896Y5203393D03*
D26*
G01*
X2522499Y2146300D03*
G01*
X2222500Y2146300D03*
G01*
X1922500Y2146300D03*
G36*
X3877309Y4131310D02*
G01*
X3877309Y4301489D01*
X4047490Y4301489D01*
X4047490Y4131310D01*
G37*
D28*
G01*
X3708400Y4216400D03*
G36*
X3877309Y3534410D02*
G01*
X3877309Y3704589D01*
X4047490Y3704589D01*
X4047490Y3534410D01*
G37*
G01*
X3708400Y3619500D03*
G36*
X3877309Y2975610D02*
G01*
X3877309Y3145789D01*
X4047490Y3145789D01*
X4047490Y2975610D01*
G37*
G01*
X3708400Y3060700D03*
D27*
G01*
X3848100Y2362200D03*
D28*
G01*
X3848100Y2616200D03*
G36*
X4906772Y5260339D02*
G01*
X4906772Y5356860D01*
X4997450Y5356860D01*
X4997450Y5260339D01*
G37*
G36*
X4756150Y5260339D02*
G01*
X4756150Y5356860D01*
X4846827Y5356860D01*
X4846827Y5260339D01*
G37*
M02*
