G04 Layer: TopSilkLayer*
G04 EasyEDA v6.4.25, 2021-11-23T19:48:26+05:30*
G04 6deea0fc31d746a092a9f6c351e50df0,9f4002972f33485ea6085689b454d61d,10*
G04 Gerber Generator version 0.2*
G04 Scale: 100 percent, Rotated: No, Reflected: No *
G04 Dimensions in millimeters *
G04 leading zeros omitted , absolute positions ,4 integer and 5 decimal *
%FSLAX45Y45*%
%MOMM*%

%ADD10C,0.2540*%
%ADD19C,0.1524*%

%LPD*%
D19*
X3086100Y1448815D02*
G01*
X3086100Y1339850D01*
X3086100Y1448815D02*
G01*
X3132836Y1448815D01*
X3148329Y1443736D01*
X3153663Y1438402D01*
X3158743Y1427987D01*
X3158743Y1417573D01*
X3153663Y1407160D01*
X3148329Y1402079D01*
X3132836Y1397000D01*
X3086100Y1397000D02*
G01*
X3132836Y1397000D01*
X3148329Y1391665D01*
X3153663Y1386586D01*
X3158743Y1376171D01*
X3158743Y1360423D01*
X3153663Y1350010D01*
X3148329Y1344929D01*
X3132836Y1339850D01*
X3086100Y1339850D01*
X3193034Y1427987D02*
G01*
X3203447Y1433321D01*
X3219195Y1448815D01*
X3219195Y1339850D01*
X2514600Y3633215D02*
G01*
X2514600Y3524250D01*
X2514600Y3633215D02*
G01*
X2561336Y3633215D01*
X2576829Y3628136D01*
X2582163Y3622802D01*
X2587243Y3612387D01*
X2587243Y3601973D01*
X2582163Y3591560D01*
X2576829Y3586479D01*
X2561336Y3581400D01*
X2514600Y3581400D02*
G01*
X2561336Y3581400D01*
X2576829Y3576065D01*
X2582163Y3570986D01*
X2587243Y3560571D01*
X2587243Y3544823D01*
X2582163Y3534410D01*
X2576829Y3529329D01*
X2561336Y3524250D01*
X2514600Y3524250D01*
X2621534Y3633215D02*
G01*
X2621534Y3555237D01*
X2626868Y3539744D01*
X2637281Y3529329D01*
X2652775Y3524250D01*
X2663190Y3524250D01*
X2678684Y3529329D01*
X2689097Y3539744D01*
X2694431Y3555237D01*
X2694431Y3633215D01*
X2801365Y3633215D02*
G01*
X2728722Y3524250D01*
X2728722Y3633215D02*
G01*
X2801365Y3633215D01*
X2728722Y3524250D02*
G01*
X2801365Y3524250D01*
X2908300Y3633215D02*
G01*
X2835656Y3524250D01*
X2835656Y3633215D02*
G01*
X2908300Y3633215D01*
X2835656Y3524250D02*
G01*
X2908300Y3524250D01*
X2942590Y3633215D02*
G01*
X2942590Y3524250D01*
X2942590Y3633215D02*
G01*
X3010154Y3633215D01*
X2942590Y3581400D02*
G01*
X2984245Y3581400D01*
X2942590Y3524250D02*
G01*
X3010154Y3524250D01*
X3044443Y3633215D02*
G01*
X3044443Y3524250D01*
X3044443Y3633215D02*
G01*
X3091179Y3633215D01*
X3106927Y3628136D01*
X3112008Y3622802D01*
X3117341Y3612387D01*
X3117341Y3601973D01*
X3112008Y3591560D01*
X3106927Y3586479D01*
X3091179Y3581400D01*
X3044443Y3581400D01*
X3081020Y3581400D02*
G01*
X3117341Y3524250D01*
X3151631Y3612387D02*
G01*
X3162045Y3617721D01*
X3177540Y3633215D01*
X3177540Y3524250D01*
X1587500Y4001515D02*
G01*
X1587500Y3892550D01*
X1587500Y4001515D02*
G01*
X1634236Y4001515D01*
X1649729Y3996436D01*
X1655063Y3991102D01*
X1660144Y3980687D01*
X1660144Y3970273D01*
X1655063Y3959860D01*
X1649729Y3954779D01*
X1634236Y3949700D01*
X1587500Y3949700D01*
X1623821Y3949700D02*
G01*
X1660144Y3892550D01*
X1694434Y3980687D02*
G01*
X1704847Y3986021D01*
X1720595Y4001515D01*
X1720595Y3892550D01*
X4826000Y4458715D02*
G01*
X4826000Y4349750D01*
X4826000Y4458715D02*
G01*
X4872736Y4458715D01*
X4888229Y4453636D01*
X4893563Y4448302D01*
X4898643Y4437887D01*
X4898643Y4427473D01*
X4893563Y4417060D01*
X4888229Y4411979D01*
X4872736Y4406900D01*
X4826000Y4406900D01*
X4862322Y4406900D02*
G01*
X4898643Y4349750D01*
X4938268Y4432807D02*
G01*
X4938268Y4437887D01*
X4943347Y4448302D01*
X4948681Y4453636D01*
X4959095Y4458715D01*
X4979670Y4458715D01*
X4990084Y4453636D01*
X4995418Y4448302D01*
X5000497Y4437887D01*
X5000497Y4427473D01*
X4995418Y4417060D01*
X4985004Y4401565D01*
X4932934Y4349750D01*
X5005831Y4349750D01*
X4787900Y4103115D02*
G01*
X4787900Y3994150D01*
X4787900Y4103115D02*
G01*
X4834636Y4103115D01*
X4850129Y4098036D01*
X4855463Y4092702D01*
X4860543Y4082287D01*
X4860543Y4071873D01*
X4855463Y4061460D01*
X4850129Y4056379D01*
X4834636Y4051300D01*
X4787900Y4051300D01*
X4824222Y4051300D02*
G01*
X4860543Y3994150D01*
X4905247Y4103115D02*
G01*
X4962397Y4103115D01*
X4931409Y4061460D01*
X4946904Y4061460D01*
X4957318Y4056379D01*
X4962397Y4051300D01*
X4967731Y4035552D01*
X4967731Y4025137D01*
X4962397Y4009644D01*
X4951984Y3999229D01*
X4936490Y3994150D01*
X4920995Y3994150D01*
X4905247Y3999229D01*
X4900168Y4004310D01*
X4894834Y4014723D01*
X4800600Y3772915D02*
G01*
X4800600Y3663950D01*
X4800600Y3772915D02*
G01*
X4847336Y3772915D01*
X4862829Y3767836D01*
X4868163Y3762502D01*
X4873243Y3752087D01*
X4873243Y3741673D01*
X4868163Y3731260D01*
X4862829Y3726179D01*
X4847336Y3721100D01*
X4800600Y3721100D01*
X4836922Y3721100D02*
G01*
X4873243Y3663950D01*
X4959604Y3772915D02*
G01*
X4907534Y3700271D01*
X4985511Y3700271D01*
X4959604Y3772915D02*
G01*
X4959604Y3663950D01*
X4851400Y3442715D02*
G01*
X4851400Y3333750D01*
X4851400Y3442715D02*
G01*
X4898136Y3442715D01*
X4913629Y3437636D01*
X4918963Y3432302D01*
X4924043Y3421887D01*
X4924043Y3411473D01*
X4918963Y3401060D01*
X4913629Y3395979D01*
X4898136Y3390900D01*
X4851400Y3390900D01*
X4887722Y3390900D02*
G01*
X4924043Y3333750D01*
X5020818Y3442715D02*
G01*
X4968747Y3442715D01*
X4963668Y3395979D01*
X4968747Y3401060D01*
X4984495Y3406394D01*
X4999990Y3406394D01*
X5015484Y3401060D01*
X5025897Y3390900D01*
X5031231Y3375152D01*
X5031231Y3364737D01*
X5025897Y3349244D01*
X5015484Y3338829D01*
X4999990Y3333750D01*
X4984495Y3333750D01*
X4968747Y3338829D01*
X4963668Y3343910D01*
X4958334Y3354323D01*
X4737100Y4915915D02*
G01*
X4737100Y4806950D01*
X4737100Y4915915D02*
G01*
X4783836Y4915915D01*
X4799329Y4910836D01*
X4804663Y4905502D01*
X4809743Y4895087D01*
X4809743Y4884673D01*
X4804663Y4874260D01*
X4799329Y4869179D01*
X4783836Y4864100D01*
X4737100Y4864100D01*
X4773422Y4864100D02*
G01*
X4809743Y4806950D01*
X4916931Y4915915D02*
G01*
X4864861Y4806950D01*
X4844034Y4915915D02*
G01*
X4916931Y4915915D01*
X2612643Y6043421D02*
G01*
X2602229Y6053836D01*
X2586736Y6058915D01*
X2565908Y6058915D01*
X2550413Y6053836D01*
X2540000Y6043421D01*
X2540000Y6033007D01*
X2545079Y6022594D01*
X2550413Y6017260D01*
X2560827Y6012179D01*
X2592070Y6001765D01*
X2602229Y5996686D01*
X2607563Y5991352D01*
X2612643Y5980937D01*
X2612643Y5965444D01*
X2602229Y5955029D01*
X2586736Y5949950D01*
X2565908Y5949950D01*
X2550413Y5955029D01*
X2540000Y5965444D01*
X2646934Y6058915D02*
G01*
X2673095Y5949950D01*
X2699004Y6058915D02*
G01*
X2673095Y5949950D01*
X2699004Y6058915D02*
G01*
X2724911Y5949950D01*
X2750820Y6058915D02*
G01*
X2724911Y5949950D01*
X2785109Y6038087D02*
G01*
X2795524Y6043421D01*
X2811272Y6058915D01*
X2811272Y5949950D01*
X3692143Y5459221D02*
G01*
X3681729Y5469636D01*
X3666236Y5474715D01*
X3645408Y5474715D01*
X3629913Y5469636D01*
X3619500Y5459221D01*
X3619500Y5448807D01*
X3624579Y5438394D01*
X3629913Y5433060D01*
X3640327Y5427979D01*
X3671570Y5417565D01*
X3681729Y5412486D01*
X3687063Y5407152D01*
X3692143Y5396737D01*
X3692143Y5381244D01*
X3681729Y5370829D01*
X3666236Y5365750D01*
X3645408Y5365750D01*
X3629913Y5370829D01*
X3619500Y5381244D01*
X3726434Y5474715D02*
G01*
X3752595Y5365750D01*
X3778504Y5474715D02*
G01*
X3752595Y5365750D01*
X3778504Y5474715D02*
G01*
X3804411Y5365750D01*
X3830320Y5474715D02*
G01*
X3804411Y5365750D01*
X3869943Y5448807D02*
G01*
X3869943Y5453887D01*
X3875024Y5464302D01*
X3880358Y5469636D01*
X3890772Y5474715D01*
X3911600Y5474715D01*
X3921759Y5469636D01*
X3927093Y5464302D01*
X3932174Y5453887D01*
X3932174Y5443473D01*
X3927093Y5433060D01*
X3916679Y5417565D01*
X3864609Y5365750D01*
X3937508Y5365750D01*
X2168143Y2614421D02*
G01*
X2157729Y2624836D01*
X2142236Y2629915D01*
X2121408Y2629915D01*
X2105913Y2624836D01*
X2095500Y2614421D01*
X2095500Y2604007D01*
X2100579Y2593594D01*
X2105913Y2588260D01*
X2116327Y2583179D01*
X2147570Y2572765D01*
X2157729Y2567686D01*
X2163063Y2562352D01*
X2168143Y2551937D01*
X2168143Y2536444D01*
X2157729Y2526029D01*
X2142236Y2520950D01*
X2121408Y2520950D01*
X2105913Y2526029D01*
X2095500Y2536444D01*
X2202434Y2629915D02*
G01*
X2228595Y2520950D01*
X2254504Y2629915D02*
G01*
X2228595Y2520950D01*
X2254504Y2629915D02*
G01*
X2280411Y2520950D01*
X2306320Y2629915D02*
G01*
X2280411Y2520950D01*
X2351024Y2629915D02*
G01*
X2408174Y2629915D01*
X2377186Y2588260D01*
X2392679Y2588260D01*
X2403093Y2583179D01*
X2408174Y2578100D01*
X2413508Y2562352D01*
X2413508Y2551937D01*
X2408174Y2536444D01*
X2397759Y2526029D01*
X2382265Y2520950D01*
X2366772Y2520950D01*
X2351024Y2526029D01*
X2345943Y2531110D01*
X2340609Y2541523D01*
X4114800Y4433315D02*
G01*
X4114800Y4355337D01*
X4119879Y4339844D01*
X4130293Y4329429D01*
X4146041Y4324350D01*
X4156456Y4324350D01*
X4171950Y4329429D01*
X4182363Y4339844D01*
X4187443Y4355337D01*
X4187443Y4433315D01*
X4221734Y4412487D02*
G01*
X4232147Y4417821D01*
X4247895Y4433315D01*
X4247895Y4324350D01*
X3987800Y3976115D02*
G01*
X3987800Y3898137D01*
X3992879Y3882644D01*
X4003293Y3872229D01*
X4019041Y3867150D01*
X4029456Y3867150D01*
X4044950Y3872229D01*
X4055363Y3882644D01*
X4060443Y3898137D01*
X4060443Y3976115D01*
X4100068Y3950207D02*
G01*
X4100068Y3955287D01*
X4105147Y3965702D01*
X4110481Y3971036D01*
X4120895Y3976115D01*
X4141470Y3976115D01*
X4151884Y3971036D01*
X4157218Y3965702D01*
X4162297Y3955287D01*
X4162297Y3944873D01*
X4157218Y3934460D01*
X4146804Y3918965D01*
X4094734Y3867150D01*
X4167631Y3867150D01*
X4038600Y3391915D02*
G01*
X4038600Y3313937D01*
X4043679Y3298444D01*
X4054093Y3288029D01*
X4069841Y3282950D01*
X4080256Y3282950D01*
X4095750Y3288029D01*
X4106163Y3298444D01*
X4111243Y3313937D01*
X4111243Y3391915D01*
X4155947Y3391915D02*
G01*
X4213097Y3391915D01*
X4182109Y3350260D01*
X4197604Y3350260D01*
X4208018Y3345179D01*
X4213097Y3340100D01*
X4218431Y3324352D01*
X4218431Y3313937D01*
X4213097Y3298444D01*
X4202684Y3288029D01*
X4187190Y3282950D01*
X4171695Y3282950D01*
X4155947Y3288029D01*
X4150868Y3293110D01*
X4145534Y3303523D01*
X4064000Y2820415D02*
G01*
X4064000Y2742437D01*
X4069079Y2726944D01*
X4079493Y2716529D01*
X4095241Y2711450D01*
X4105656Y2711450D01*
X4121150Y2716529D01*
X4131563Y2726944D01*
X4136643Y2742437D01*
X4136643Y2820415D01*
X4223004Y2820415D02*
G01*
X4170934Y2747771D01*
X4248911Y2747771D01*
X4223004Y2820415D02*
G01*
X4223004Y2711450D01*
X4775200Y5525515D02*
G01*
X4775200Y5416550D01*
X4775200Y5525515D02*
G01*
X4821936Y5525515D01*
X4837429Y5520436D01*
X4842763Y5515102D01*
X4847843Y5504687D01*
X4847843Y5494273D01*
X4842763Y5483860D01*
X4837429Y5478779D01*
X4821936Y5473700D01*
X4775200Y5473700D01*
X4811522Y5473700D02*
G01*
X4847843Y5416550D01*
X4944618Y5510021D02*
G01*
X4939284Y5520436D01*
X4923790Y5525515D01*
X4913375Y5525515D01*
X4897881Y5520436D01*
X4887468Y5504687D01*
X4882134Y5478779D01*
X4882134Y5452871D01*
X4887468Y5432044D01*
X4897881Y5421629D01*
X4913375Y5416550D01*
X4918709Y5416550D01*
X4934204Y5421629D01*
X4944618Y5432044D01*
X4949697Y5447537D01*
X4949697Y5452871D01*
X4944618Y5468365D01*
X4934204Y5478779D01*
X4918709Y5483860D01*
X4913375Y5483860D01*
X4897881Y5478779D01*
X4887468Y5468365D01*
X4882134Y5452871D01*
D10*
X2705100Y3289300D02*
G01*
X2705100Y3390900D01*
X2654300Y3340100D02*
G01*
X2755900Y3340100D01*
X1333500Y3797300D02*
G01*
X1993900Y3797300D01*
X1993900Y3162300D01*
X1333500Y3162300D01*
X1333500Y3797300D01*
D19*
X4834178Y4307860D02*
G01*
X4738291Y4307860D01*
X4738291Y4175739D01*
X4834178Y4175739D01*
X4919421Y4307860D02*
G01*
X5015308Y4307860D01*
X5015308Y4175739D01*
X4919421Y4175739D01*
X4834178Y3964960D02*
G01*
X4738291Y3964960D01*
X4738291Y3832839D01*
X4834178Y3832839D01*
X4919421Y3964960D02*
G01*
X5015308Y3964960D01*
X5015308Y3832839D01*
X4919421Y3832839D01*
X4846878Y3634760D02*
G01*
X4750991Y3634760D01*
X4750991Y3502639D01*
X4846878Y3502639D01*
X4932121Y3634760D02*
G01*
X5028008Y3634760D01*
X5028008Y3502639D01*
X4932121Y3502639D01*
X4897678Y3291860D02*
G01*
X4801791Y3291860D01*
X4801791Y3159739D01*
X4897678Y3159739D01*
X4982921Y3291860D02*
G01*
X5078808Y3291860D01*
X5078808Y3159739D01*
X4982921Y3159739D01*
X4932121Y4620239D02*
G01*
X5028008Y4620239D01*
X5028008Y4752360D01*
X4932121Y4752360D01*
X4846878Y4620239D02*
G01*
X4750991Y4620239D01*
X4750991Y4752360D01*
X4846878Y4752360D01*
D10*
X2945511Y5262600D02*
G01*
X2464688Y5262600D01*
X2405100Y5447908D02*
G01*
X2405100Y5677291D01*
X2464688Y5862599D02*
G01*
X2945511Y5862599D01*
X3005099Y5677291D02*
G01*
X3005099Y5447908D01*
X4012311Y4678400D02*
G01*
X3531488Y4678400D01*
X3471900Y4863708D02*
G01*
X3471900Y5093091D01*
X3531488Y5278399D02*
G01*
X4012311Y5278399D01*
X4071899Y5093091D02*
G01*
X4071899Y4863708D01*
X2827500Y2275984D02*
G01*
X2827500Y2426299D01*
X2827500Y1866300D02*
G01*
X2827500Y2016615D01*
X1617499Y2275984D02*
G01*
X1617499Y2426299D01*
X1617499Y1866300D02*
G01*
X1617499Y2016615D01*
X1617499Y2426299D02*
G01*
X2827500Y2426299D01*
X2827500Y1866300D02*
G01*
X1617499Y1866300D01*
X3924300Y4064000D02*
G01*
X3746576Y4064000D01*
X3810076Y4013200D02*
G01*
X3810076Y4114800D01*
X3810787Y4064000D02*
G01*
X3810787Y4063288D01*
X3860876Y4013200D01*
X3860876Y4114800D01*
X3860876Y4114800D02*
G01*
X3860175Y4114800D01*
X3809375Y4064000D01*
X3924300Y3467100D02*
G01*
X3746576Y3467100D01*
X3810076Y3416300D02*
G01*
X3810076Y3517900D01*
X3810787Y3467100D02*
G01*
X3810787Y3466388D01*
X3860876Y3416300D01*
X3860876Y3517900D01*
X3860876Y3517900D02*
G01*
X3860175Y3517900D01*
X3809375Y3467100D01*
X3924300Y2908300D02*
G01*
X3746576Y2908300D01*
X3810076Y2857500D02*
G01*
X3810076Y2959100D01*
X3810787Y2908300D02*
G01*
X3810787Y2907588D01*
X3860876Y2857500D01*
X3860876Y2959100D01*
X3860876Y2959100D02*
G01*
X3860175Y2959100D01*
X3809375Y2908300D01*
X3695700Y2400300D02*
G01*
X3695700Y2578023D01*
X3644900Y2514523D02*
G01*
X3746500Y2514523D01*
X3695700Y2513812D02*
G01*
X3694988Y2513812D01*
X3644900Y2463723D01*
X3746500Y2463723D01*
X3746500Y2463723D02*
G01*
X3746500Y2464424D01*
X3695700Y2515224D01*
D19*
X4919421Y5242539D02*
G01*
X5015308Y5242539D01*
X5015308Y5374660D01*
X4919421Y5374660D01*
X4834178Y5242539D02*
G01*
X4738291Y5242539D01*
X4738291Y5374660D01*
X4834178Y5374660D01*
D10*
G75*
G01
X3482848Y3619500D02*
G03X3482848Y3619500I-599948J0D01*
G75*
G01
X2885110Y5562600D02*
G03X2885110Y5562600I-180010J0D01*
G75*
G01
X2569820Y5382616D02*
G03X2569820Y5382616I-44729J0D01*
G75*
G01
X2929839Y5382590D02*
G03X2929839Y5382590I-44729J0D01*
G75*
G01
X2929839Y5742610D02*
G03X2929839Y5742610I-44729J0D01*
G75*
G01
X2569820Y5742610D02*
G03X2569820Y5742610I-44729J0D01*
G75*
G01
X3951910Y4978400D02*
G03X3951910Y4978400I-180010J0D01*
G75*
G01
X3636620Y4798416D02*
G03X3636620Y4798416I-44729J0D01*
G75*
G01
X3996639Y4798390D02*
G03X3996639Y4798390I-44729J0D01*
G75*
G01
X3996639Y5158410D02*
G03X3996639Y5158410I-44729J0D01*
G75*
G01
X3636620Y5158410D02*
G03X3636620Y5158410I-44729J0D01*
G75*
G01
X4085412Y4216400D02*
G03X4085412Y4216400I-250012J0D01*
G75*
G01
X4085412Y3619500D02*
G03X4085412Y3619500I-250012J0D01*
G75*
G01
X4085412Y3060700D02*
G03X4085412Y3060700I-250012J0D01*
G75*
G01
X4098112Y2489200D02*
G03X4098112Y2489200I-250012J0D01*
M02*
