G04 Layer: BottomLayer*
G04 EasyEDA v6.4.25, 2021-11-23T19:48:26+05:30*
G04 6deea0fc31d746a092a9f6c351e50df0,9f4002972f33485ea6085689b454d61d,10*
G04 Gerber Generator version 0.2*
G04 Scale: 100 percent, Rotated: No, Reflected: No *
G04 Dimensions in millimeters *
G04 leading zeros omitted , absolute positions ,4 integer and 5 decimal *
%FSLAX45Y45*%
%MOMM*%

%ADD10C,0.2540*%
%ADD11C,0.6096*%
%ADD13C,1.7780*%
%ADD14C,1.2700*%
%ADD15C,1.8000*%
%ADD16C,1.6000*%
%ADD17R,1.6000X1.6000*%
%ADD18C,1.4000*%

%LPD*%
D10*
X2654300Y2679700D02*
G01*
X3149600Y2679700D01*
X1917700Y3733800D02*
G01*
X1587500Y4064000D01*
X787400Y4064000D01*
X4559300Y5080000D02*
G01*
X4648200Y4991100D01*
X5194300Y4991100D01*
D13*
G01*
X2882900Y3294379D03*
G01*
X2882900Y3944620D03*
D14*
G01*
X1409700Y3733800D03*
G01*
X1917700Y3733800D03*
G01*
X1663700Y3225800D03*
D15*
G01*
X3010103Y5337606D03*
G01*
X2400096Y5337606D03*
G01*
X3010103Y5787593D03*
G01*
X2400096Y5787593D03*
G01*
X4076903Y4753406D03*
G01*
X3466896Y4753406D03*
G01*
X4076903Y5203393D03*
G01*
X3466896Y5203393D03*
D16*
G01*
X2522499Y2146300D03*
G01*
X2222500Y2146300D03*
G01*
X1922500Y2146300D03*
D17*
G01*
X3962400Y4216400D03*
D16*
G01*
X3708400Y4216400D03*
D17*
G01*
X3962400Y3619500D03*
D16*
G01*
X3708400Y3619500D03*
D17*
G01*
X3962400Y3060700D03*
D16*
G01*
X3708400Y3060700D03*
D17*
G01*
X3848100Y2362200D03*
D16*
G01*
X3848100Y2616200D03*
D11*
G01*
X3149600Y2679700D03*
G01*
X2654300Y2679700D03*
G01*
X4559300Y5080000D03*
G01*
X5194300Y4991100D03*
D13*
X876300Y5080000D02*
G01*
X698500Y5080000D01*
X876300Y4826000D02*
G01*
X698500Y4826000D01*
X876300Y4572000D02*
G01*
X698500Y4572000D01*
X876300Y4318000D02*
G01*
X698500Y4318000D01*
X876300Y4064000D02*
G01*
X698500Y4064000D01*
X876300Y3784600D02*
G01*
X698500Y3784600D01*
X876300Y3276600D02*
G01*
X698500Y3276600D01*
X876300Y3022600D02*
G01*
X698500Y3022600D01*
X876300Y2768600D02*
G01*
X698500Y2768600D01*
X876300Y2514600D02*
G01*
X698500Y2514600D01*
X876300Y2260600D02*
G01*
X698500Y2260600D01*
X876300Y2006600D02*
G01*
X698500Y2006600D01*
X5702300Y2006600D02*
G01*
X5524500Y2006600D01*
X5702300Y2260600D02*
G01*
X5524500Y2260600D01*
X5702300Y2514600D02*
G01*
X5524500Y2514600D01*
X5702300Y2768600D02*
G01*
X5524500Y2768600D01*
X5702300Y3022600D02*
G01*
X5524500Y3022600D01*
X5702300Y3276600D02*
G01*
X5524500Y3276600D01*
X5702300Y3530600D02*
G01*
X5524500Y3530600D01*
X5702300Y3784600D02*
G01*
X5524500Y3784600D01*
X5702300Y4191000D02*
G01*
X5524500Y4191000D01*
X5702300Y4445000D02*
G01*
X5524500Y4445000D01*
X5702300Y4699000D02*
G01*
X5524500Y4699000D01*
X5702300Y4953000D02*
G01*
X5524500Y4953000D01*
X5702300Y5207000D02*
G01*
X5524500Y5207000D01*
X5702300Y5461000D02*
G01*
X5524500Y5461000D01*
X5702300Y5715000D02*
G01*
X5524500Y5715000D01*
X5702300Y5969000D02*
G01*
X5524500Y5969000D01*
X5702300Y6223000D02*
G01*
X5524500Y6223000D01*
X5702300Y6477000D02*
G01*
X5524500Y6477000D01*
X876300Y5334000D02*
G01*
X698500Y5334000D01*
X876300Y5588000D02*
G01*
X698500Y5588000D01*
D18*
X1642490Y2106300D02*
G01*
X1642490Y2186299D01*
X2802483Y2106300D02*
G01*
X2802483Y2186299D01*
M02*
