M48
METRIC,LZ,000.000
;FILE_FORMAT=3:3
;TYPE=PLATED
;Layer: Drill PTH
;EasyEDA v6.4.25, 2021-11-23T19:48:26+05:30
;6deea0fc31d746a092a9f6c351e50df0,9f4002972f33485ea6085689b454d61d,10
;Gerber Generator version 0.2
;Holesize 1 = 0.305 mm
T01C0.305
;Holesize 2 = 0.635 mm
T02C0.635
;Holesize 3 = 0.800 mm
T03C0.800
;Holesize 4 = 0.900 mm
T04C0.900
;Holesize 5 = 1.000 mm
T05C1.000
;Holesize 6 = 1.016 mm
T06C1.016
;Holesize 7 = 1.200 mm
T07C1.200
%
G05
G90
T01
X031496Y026797
X026543Y026797
X045593Y050800
X051943Y049911
T02
X014097Y037338
X019177Y037338
X016637Y032258
T03
X016425Y021863G85X016425Y021063
X028025Y021863G85X028025Y021063
T04
X028829Y032944
X028829Y039446
T05
X025225Y021463
X022225Y021463
X019225Y021463
X039624Y042164
X037084Y042164
X039624Y036195
X037084Y036195
X039624Y030607
X037084Y030607
X038481Y023622
X038481Y026162
T06
X007874Y050800
X007874Y048260
X007874Y045720
X007874Y043180
X007874Y040640
X007874Y037846
X007874Y032766
X007874Y030226
X007874Y027686
X007874Y025146
X007874Y022606
X007874Y020066
X056134Y020066
X056134Y022606
X056134Y025146
X056134Y027686
X056134Y030226
X056134Y032766
X056134Y035306
X056134Y037846
X056134Y041910
X056134Y044450
X056134Y046990
X056134Y049530
X056134Y052070
X056134Y054610
X056134Y057150
X056134Y059690
X056134Y062230
X056134Y064770
X007874Y053340
X007874Y055880
T07
X030101Y053376
X024001Y053376
X030101Y057876
X024001Y057876
X040769Y047534
X034669Y047534
X040769Y052034
X034669Y052034
M30
